<svg xmlns="http://www.w3.org/2000/svg" width="694" height="138" viewBox="0 0 694 138">
  <g fill="none" fill-rule="evenodd" transform="translate(-5 -27)">
    <path fill="#313131" d="M140,124.368932 C140.362461,124.368932 140.543689,124.640774 140.543689,125.184466 C140.543689,125.728158 140.362461,126 140,126 C137.644001,126 135.786415,125.954693 134.427184,125.864078 L126.407767,125.728155 L118.252427,125.864078 C116.893197,125.954693 115.03561,126 112.679612,126 C112.498381,126 112.407767,125.728158 112.407767,125.184466 C112.407767,124.640774 112.498381,124.368932 112.679612,124.368932 C115.488687,124.368932 117.414234,123.711981 118.456311,122.398058 C119.498387,121.084136 120.019417,118.614905 120.019417,114.990291 L120.019417,95.4174757 C120.019417,90.5242474 119.113278,86.8996882 117.300971,84.5436893 C115.488664,82.1876905 112.679631,81.0097087 108.873786,81.0097087 C106.699018,81.0097087 104.478976,81.4401251 102.213592,82.3009709 C99.9482087,83.1618166 97.9547012,84.3624518 96.2330097,85.9029126 L96.2330097,114.990291 C96.2330097,118.614905 96.7313866,121.084136 97.7281553,122.398058 C98.7249241,123.711981 100.627818,124.368932 103.436893,124.368932 C103.799355,124.368932 103.980583,124.640774 103.980583,125.184466 C103.980583,125.728158 103.799355,126 103.436893,126 C101.080894,126 99.2233078,125.954693 97.8640777,125.864078 L89.8446602,125.728155 L81.6893204,125.864078 C80.3300903,125.954693 78.4725037,126 76.1165049,126 C75.9352742,126 75.8446602,125.728158 75.8446602,125.184466 C75.8446602,124.640774 75.9352742,124.368932 76.1165049,124.368932 C78.9255804,124.368932 80.8511275,123.711981 81.8932039,122.398058 C82.9352803,121.084136 83.4563107,118.614905 83.4563107,114.990291 L83.4563107,46.4854369 C83.4563107,45.5792835 83.2524292,44.9676391 82.8446602,44.6504854 C82.4368912,44.3333317 81.6893258,44.1747573 80.6019417,44.1747573 L58.1747573,44.1747573 C55.5469124,44.1747573 53.8025933,44.7410947 52.9417476,45.8737864 C52.0809018,47.0064782 51.6504854,49.1585602 51.6504854,52.3300971 L51.6504854,114.990291 C51.6504854,117.799367 51.9223274,119.838181 52.4660194,121.106796 C53.0097115,122.375411 54.0517722,123.236244 55.592233,123.68932 C57.1326938,124.142397 59.5792713,124.368932 62.9320388,124.368932 C63.2038849,124.368932 63.3398058,124.640774 63.3398058,125.184466 C63.3398058,125.728158 63.2038849,126 62.9320388,126 C59.6698866,126 57.0873882,125.954693 55.184466,125.864078 L43.9029126,125.728155 L32.8932039,125.864078 C30.9902817,125.954693 28.3624763,126 25.0097087,126 C24.7378627,126 24.6019417,125.728158 24.6019417,125.184466 C24.6019417,124.640774 24.7378627,124.368932 25.0097087,124.368932 C28.271861,124.368932 30.695785,124.142397 32.2815534,123.68932 C33.8673218,123.236244 34.9546896,122.352757 35.5436893,121.038835 C36.132689,119.724913 36.4271845,117.708751 36.4271845,114.990291 L36.4271845,52.0582524 C36.4271845,48.9773309 36.0194216,46.8932093 35.2038835,45.8058252 C34.3883454,44.7184412 32.7119868,44.1747573 30.1747573,44.1747573 C19.3915318,44.1747573 11.6440365,51.1973408 6.93203883,65.2427184 C6.8414235,65.5145645 6.56958155,65.6278319 6.11650485,65.5825243 C5.66342816,65.5372166 5.4368932,65.3786421 5.4368932,65.1067961 C5.79935456,61.4821825 6.20711748,56.792909 6.66019417,51.038835 C7.11327087,45.2847609 7.33980583,40.9579433 7.33980583,38.0582524 C7.33980583,37.6051757 7.58899427,37.3786408 8.08737864,37.3786408 C8.58576301,37.3786408 8.83495146,37.6051757 8.83495146,38.0582524 C8.83495146,40.0517899 11.4174499,41.0485437 16.5825243,41.0485437 C24.3754435,41.3203897 33.4821485,41.4563107 43.9029126,41.4563107 C57.7670596,41.4563107 66.5566157,41.3203897 70.2718447,41.0485437 C75.7993804,40.7766977 80.5792679,39.372181 84.6116505,36.8349515 C88.6440331,34.2977219 91.656948,31.1715396 93.6504854,27.4563107 C93.8317161,27.1844647 94.194172,27.0485437 94.7378641,27.0485437 C95.7346328,27.0485437 96.2330097,27.2750786 96.2330097,27.7281553 L96.2330097,82.9126214 C99.1327006,79.3786231 102.326843,76.6602037 105.815534,74.7572816 C109.304225,72.8543594 112.996744,71.9029126 116.893204,71.9029126 C121.786432,71.9029126 125.66018,73.4660038 128.514563,76.592233 C131.368946,79.7184622 132.796117,83.8187449 132.796117,88.8932039 L132.796117,114.990291 C132.796117,118.614905 133.294493,121.084136 134.291262,122.398058 C135.288031,123.711981 137.190924,124.368932 140,124.368932 Z M194.334951,117.029126 C194.516182,117.029126 194.720064,117.210354 194.946602,117.572816 C195.17314,117.935277 195.195794,118.207119 195.014563,118.38835 C191.661796,121.650502 188.263771,124.006465 184.820388,125.456311 C181.377005,126.906156 177.616525,127.631068 173.538835,127.631068 C167.830069,127.631068 162.891607,126.430433 158.723301,124.029126 C154.554995,121.62782 151.383506,118.411023 149.208738,114.378641 C147.03397,110.346258 145.946602,106.019441 145.946602,101.398058 C145.946602,96.1423685 147.305812,91.2718671 150.024272,86.7864078 C152.742732,82.3009484 156.457905,78.7670032 161.169903,76.184466 C165.881901,73.6019288 171.137511,72.3106796 176.936893,72.3106796 C182.555044,72.3106796 186.859208,73.5113149 189.849515,75.9126214 C192.839821,78.3139279 194.334951,81.5986847 194.334951,85.7669903 C194.334951,88.3948351 193.836575,89.7087379 192.839806,89.7087379 L184.548544,89.7087379 L160.082524,89.9805825 C159.810678,91.702274 159.674757,93.6051676 159.674757,95.6893204 C159.674757,103.48224 161.50969,109.64399 165.179612,114.174757 C168.849533,118.705524 173.901262,120.970874 180.334951,120.970874 C182.600335,120.970874 184.956298,120.653725 187.402913,120.019417 C189.849527,119.38511 192.069569,118.433663 194.063107,117.165049 L194.334951,117.029126 Z M171.907767,75.0291262 C169.189307,75.0291262 166.833343,76.116494 164.839806,78.2912621 C162.846268,80.4660303 161.396445,83.4562917 160.490291,87.2621359 L179.791262,86.8543689 C179.519416,78.9708344 176.891611,75.0291262 171.907767,75.0291262 Z M238.203883,72.1747573 C240.288036,72.1747573 242.304197,72.9223226 244.252427,74.4174757 C246.200657,75.9126288 247.174757,77.702255 247.174757,79.7864078 C247.174757,81.6893299 246.585766,83.2524211 245.407767,84.4757282 C244.229768,85.6990352 242.68933,86.3106796 240.786408,86.3106796 C239.427178,86.3106796 238.317156,86.0388377 237.456311,85.4951456 C236.595465,84.9514536 235.711979,84.1359278 234.805825,83.0485437 C233.990287,82.1423903 233.288029,81.4854389 232.699029,81.0776699 C232.110029,80.6699009 231.407771,80.4660194 230.592233,80.4660194 C229.68608,80.4660194 228.711979,80.8058218 227.669903,81.4854369 C226.627827,82.1650519 225.019428,83.5922221 222.84466,85.7669903 L222.84466,114.990291 C222.84466,118.614905 223.705493,121.084136 225.427184,122.398058 C227.148876,123.711981 230.320365,124.368932 234.941748,124.368932 C235.304209,124.368932 235.485437,124.640774 235.485437,125.184466 C235.485437,125.728158 235.304209,126 234.941748,126 C231.770211,126 229.278326,125.954693 227.466019,125.864078 L216.456311,125.728155 L208.436893,125.864078 C207.077663,125.954693 205.220077,126 202.864078,126 C202.592232,126 202.456311,125.728158 202.456311,125.184466 C202.456311,124.640774 202.592232,124.368932 202.864078,124.368932 C205.673153,124.368932 207.576047,123.711981 208.572816,122.398058 C209.569584,121.084136 210.067961,118.614905 210.067961,114.990291 L210.067961,89.4368932 C210.067961,86.6278177 209.728159,84.5663496 209.048544,83.2524272 C208.368929,81.9385048 207.304214,81.2815534 205.854369,81.2815534 C204.313908,81.2815534 202.139173,81.9158513 199.330097,83.184466 L199.058252,83.184466 C198.786406,83.184466 198.582525,82.9579311 198.446602,82.5048544 C198.310679,82.0517777 198.333332,81.7799357 198.514563,81.6893204 L217.407767,72.4466019 C217.951459,72.2653713 218.268608,72.1747573 218.359223,72.1747573 C219.355992,72.1747573 220.284785,73.1035506 221.145631,74.961165 C222.006477,76.8187795 222.527507,79.3333175 222.708738,82.5048544 C226.423967,78.6990101 229.482189,76.0258977 231.883495,74.4854369 C234.284802,72.9449761 236.391577,72.1747573 238.203883,72.1747573 Z M351.393204,124.368932 C351.755665,124.368932 351.936893,124.640774 351.936893,125.184466 C351.936893,125.728158 351.755665,126 351.393204,126 C349.037205,126 347.179618,125.954693 345.820388,125.864078 L337.665049,125.728155 L329.781553,125.864078 C328.331708,125.954693 326.428814,126 324.072816,126 C323.80097,126 323.665049,125.728158 323.665049,125.184466 C323.665049,124.640774 323.80097,124.368932 324.072816,124.368932 C326.881891,124.368932 328.807438,123.711981 329.849515,122.398058 C330.891591,121.084136 331.412621,118.614905 331.412621,114.990291 L331.412621,95.4174757 C331.412621,90.5242474 330.574442,86.8996882 328.898058,84.5436893 C327.221674,82.1876905 324.66183,81.0097087 321.218447,81.0097087 C318.862448,81.0097087 316.551791,81.5080856 314.286408,82.5048544 C312.021024,83.5016231 310.072824,84.8608328 308.441748,86.5825243 L308.441748,114.990291 C308.441748,118.614905 308.962778,121.084136 310.004854,122.398058 C311.046931,123.711981 312.972478,124.368932 315.781553,124.368932 C316.144015,124.368932 316.325243,124.640774 316.325243,125.184466 C316.325243,125.728158 316.144015,126 315.781553,126 C313.425555,126 311.567968,125.954693 310.208738,125.864078 L302.053398,125.728155 L294.169903,125.864078 C292.720057,125.954693 290.817164,126 288.461165,126 C288.189319,126 288.053398,125.728158 288.053398,125.184466 C288.053398,124.640774 288.189319,124.368932 288.461165,124.368932 C291.270241,124.368932 293.195788,123.711981 294.237864,122.398058 C295.27994,121.084136 295.800971,118.614905 295.800971,114.990291 L295.800971,95.4174757 C295.800971,90.5242474 294.962792,86.8996882 293.286408,84.5436893 C291.610024,82.1876905 289.050179,81.0097087 285.606796,81.0097087 C283.432028,81.0097087 281.279946,81.4401251 279.150485,82.3009709 C277.021025,83.1618166 275.140785,84.3624518 273.509709,85.9029126 L273.509709,114.990291 C273.509709,118.614905 274.030739,121.084136 275.072816,122.398058 C276.114892,123.711981 278.040439,124.368932 280.849515,124.368932 C281.121361,124.368932 281.257282,124.640774 281.257282,125.184466 C281.257282,125.728158 281.121361,126 280.849515,126 C278.493516,126 276.635929,125.954693 275.276699,125.864078 L267.121359,125.728155 L259.101942,125.864078 C257.742712,125.954693 255.885125,126 253.529126,126 C253.25728,126 253.121359,125.728158 253.121359,125.184466 C253.121359,124.640774 253.25728,124.368932 253.529126,124.368932 C256.338202,124.368932 258.241095,123.711981 259.237864,122.398058 C260.234633,121.084136 260.73301,118.614905 260.73301,114.990291 L260.73301,89.4368932 C260.73301,86.6278177 260.393207,84.5663496 259.713592,83.2524272 C259.033977,81.9385048 257.969263,81.2815534 256.519417,81.2815534 C254.978957,81.2815534 252.804221,81.9158513 249.995146,83.184466 L249.723301,83.184466 C249.451455,83.184466 249.247573,82.9579311 249.11165,82.5048544 C248.975727,82.0517777 248.998381,81.7799357 249.179612,81.6893204 L268.072816,72.4466019 C268.616508,72.2653713 268.933657,72.1747573 269.024272,72.1747573 C270.021041,72.1747573 270.972487,73.1488576 271.878641,75.0970874 C272.784794,77.0453172 273.328478,79.6504691 273.509709,82.9126214 C279.671552,75.5727788 286.286372,71.9029126 293.354369,71.9029126 C297.61329,71.9029126 301.011314,72.9449734 303.548544,75.0291262 C306.085773,77.113279 307.626211,80.1035404 308.169903,84 C314.422361,75.9352348 321.354331,71.9029126 328.966019,71.9029126 C333.859248,71.9029126 337.597074,73.3074293 340.179612,76.1165049 C342.762149,78.9255804 344.053398,83.1844375 344.053398,88.8932039 L344.053398,114.990291 C344.053398,118.614905 344.574428,121.084136 345.616505,122.398058 C346.658581,123.711981 348.584128,124.368932 351.393204,124.368932 Z M385.203883,127.76699 C379.585732,127.76699 374.669924,126.475741 370.456311,123.893204 C366.242697,121.310667 363.003248,117.822028 360.737864,113.427184 C358.472481,109.03234 357.339806,104.252453 357.339806,99.0873786 C357.339806,93.1973816 358.834937,88.1909591 361.825243,84.0679612 C364.815549,79.9449632 368.621336,76.8640879 373.242718,74.8252427 C377.864101,72.7863976 382.621335,71.7669903 387.514563,71.7669903 C393.132714,71.7669903 398.025869,73.080893 402.194175,75.7087379 C406.36248,78.3365827 409.556623,81.8025675 411.776699,86.1067961 C413.996775,90.4110248 415.106796,95.0096843 415.106796,99.9029126 C415.106796,105.339833 413.747586,110.165027 411.029126,114.378641 C408.310666,118.592254 404.663453,121.877011 400.087379,124.23301 C395.511304,126.589009 390.550189,127.76699 385.203883,127.76699 Z M389.281553,124.912621 C392.815552,124.912621 395.511318,123.168302 397.368932,119.679612 C399.226547,116.190921 400.15534,111.184499 400.15534,104.660194 C400.15534,98.3171204 399.339814,92.8802816 397.708738,88.3495146 C396.077662,83.8187476 393.948233,80.3980698 391.320388,78.0873786 C388.692543,75.7766875 385.88351,74.6213592 382.893204,74.6213592 C375.643977,74.6213592 372.019417,81.1002588 372.019417,94.0582524 C372.019417,100.12948 372.789636,105.498359 374.330097,110.165049 C375.870558,114.831739 377.954679,118.456298 380.582524,121.038835 C383.210369,123.621372 386.110017,124.912621 389.281553,124.912621 Z M450.412621,127.631068 C444.432009,127.631068 439.38028,126.339819 435.257282,123.757282 C431.134284,121.174744 428.053408,117.822027 426.014563,113.699029 C423.975718,109.576031 422.956311,105.249214 422.956311,100.718447 C422.956311,95.0096802 424.542055,90.0032578 427.713592,85.6990291 C430.885129,81.3948005 434.940105,78.0873902 439.878641,75.776699 C444.817177,73.4660079 449.868906,72.3106796 455.033981,72.3106796 C459.383517,72.3106796 463.302572,73.2168194 466.791262,75.0291262 C470.279953,76.841433 472.024272,79.3333175 472.024272,82.5048544 C472.024272,84.2265458 471.36732,85.699023 470.053398,86.9223301 C468.739476,88.1456372 466.904543,88.7572816 464.548544,88.7572816 C462.373776,88.7572816 460.65211,88.1909442 459.383495,87.0582524 C458.11488,85.9255607 457.07282,84.1812416 456.257282,81.8252427 C455.441743,79.2880132 454.648871,77.5436941 453.878641,76.592233 C453.10841,75.6407719 451.726547,75.1650485 449.73301,75.1650485 C445.83655,75.1650485 442.733021,77.0905956 440.42233,80.9417476 C438.111639,84.7928995 436.956311,89.8899359 436.956311,96.2330097 C436.956311,103.754083 438.632669,109.757259 441.985437,114.242718 C445.338204,118.728178 450.684429,120.970874 458.024272,120.970874 C460.470886,120.970874 462.577661,120.699032 464.34466,120.15534 C466.111659,119.611648 468.354355,118.705508 471.072816,117.436893 L471.208738,117.436893 C471.480584,117.436893 471.729772,117.572814 471.956311,117.84466 C472.182849,118.116506 472.205503,118.343041 472.024272,118.524272 C468.671504,121.605193 465.318787,123.893196 461.966019,125.38835 C458.613252,126.883503 454.762158,127.631068 450.412621,127.631068 Z M516.165049,72.1747573 C518.249201,72.1747573 520.265362,72.9223226 522.213592,74.4174757 C524.161822,75.9126288 525.135922,77.702255 525.135922,79.7864078 C525.135922,81.6893299 524.546931,83.2524211 523.368932,84.4757282 C522.190933,85.6990352 520.650495,86.3106796 518.747573,86.3106796 C517.388343,86.3106796 516.278321,86.0388377 515.417476,85.4951456 C514.55663,84.9514536 513.673144,84.1359278 512.76699,83.0485437 C511.951452,82.1423903 511.249194,81.4854389 510.660194,81.0776699 C510.071194,80.6699009 509.368936,80.4660194 508.553398,80.4660194 C507.647245,80.4660194 506.673144,80.8058218 505.631068,81.4854369 C504.588992,82.1650519 502.980593,83.5922221 500.805825,85.7669903 L500.805825,114.990291 C500.805825,118.614905 501.666658,121.084136 503.38835,122.398058 C505.110041,123.711981 508.28153,124.368932 512.902913,124.368932 C513.265374,124.368932 513.446602,124.640774 513.446602,125.184466 C513.446602,125.728158 513.265374,126 512.902913,126 C509.731376,126 507.239491,125.954693 505.427184,125.864078 L494.417476,125.728155 L486.398058,125.864078 C485.038828,125.954693 483.181242,126 480.825243,126 C480.553397,126 480.417476,125.728158 480.417476,125.184466 C480.417476,124.640774 480.553397,124.368932 480.825243,124.368932 C483.634318,124.368932 485.537212,123.711981 486.533981,122.398058 C487.530749,121.084136 488.029126,118.614905 488.029126,114.990291 L488.029126,89.4368932 C488.029126,86.6278177 487.689324,84.5663496 487.009709,83.2524272 C486.330094,81.9385048 485.265379,81.2815534 483.815534,81.2815534 C482.275073,81.2815534 480.100338,81.9158513 477.291262,83.184466 L477.019417,83.184466 C476.747571,83.184466 476.54369,82.9579311 476.407767,82.5048544 C476.271844,82.0517777 476.294497,81.7799357 476.475728,81.6893204 L495.368932,72.4466019 C495.912624,72.2653713 496.229773,72.1747573 496.320388,72.1747573 C497.317157,72.1747573 498.24595,73.1035506 499.106796,74.961165 C499.967642,76.8187795 500.488672,79.3333175 500.669903,82.5048544 C504.385132,78.6990101 507.443354,76.0258977 509.84466,74.4854369 C512.245967,72.9449761 514.352742,72.1747573 516.165049,72.1747573 Z M581.509709,118.660194 C581.87217,118.660194 582.121359,118.864076 582.257282,119.271845 C582.393205,119.679614 582.279937,119.974109 581.917476,120.15534 L567.917476,126.815534 C567.555014,126.996765 567.101944,127.087379 566.558252,127.087379 C565.199022,127.087379 563.862466,126.407774 562.548544,125.048544 C561.234621,123.689314 560.305828,121.831727 559.762136,119.475728 L553.509709,122.873786 C551.15371,124.051786 548.707132,125.025886 546.169903,125.796117 C543.632673,126.566347 541.367324,126.951456 539.373786,126.951456 C536.474096,126.951456 534.186093,126.203891 532.509709,124.708738 C530.833325,123.213585 529.995146,121.061503 529.995146,118.252427 C529.995146,116.168274 530.516176,114.491916 531.558252,113.223301 C532.600329,111.954686 534.09546,110.889972 536.043689,110.029126 C537.991919,109.16828 541.095448,108.012952 545.354369,106.563107 L559.218447,102.07767 L559.218447,91.3398058 C559.218447,85.9028854 558.674763,81.8932168 557.587379,79.3106796 C556.499995,76.7281424 554.733022,75.4368932 552.286408,75.4368932 C550.11164,75.4368932 548.389974,76.252419 547.121359,77.8834951 C545.852744,79.5145713 545.082526,82.1876837 544.81068,85.9029126 C544.266988,90.9773717 541.593875,93.5145631 536.791262,93.5145631 C532.532341,93.5145631 530.402913,91.6569765 530.402913,87.9417476 C530.402913,85.4951334 531.94335,83.0485559 535.024272,80.6019417 C538.105193,78.1553276 541.820367,76.16182 546.169903,74.6213592 C550.519439,73.0808984 554.325226,72.3106796 557.587379,72.3106796 C561.8463,72.3106796 565.312284,73.5792753 567.985437,76.1165049 C570.658589,78.6537344 571.995146,82.3689076 571.995146,87.2621359 L571.995146,111.320388 C571.995146,113.948233 572.470869,115.987048 573.42233,117.436893 C574.373791,118.886739 575.710347,119.61165 577.432039,119.61165 C578.700654,119.61165 580.014556,119.294502 581.373786,118.660194 L581.509709,118.660194 Z M559.354369,117.300971 C559.263754,116.666663 559.218447,115.715217 559.218447,114.446602 L559.218447,104.38835 L551.742718,107.106796 C549.296104,108.01295 547.551785,109.009703 546.509709,110.097087 C545.467632,111.184471 544.946602,112.498374 544.946602,114.038835 C544.946602,115.941757 545.490286,117.436888 546.57767,118.524272 C547.665054,119.611656 549.024264,120.15534 550.65534,120.15534 C552.648877,120.15534 554.959534,119.521042 557.587379,118.252427 L559.354369,117.300971 Z M612.737864,127.631068 C606.757252,127.631068 601.705522,126.339819 597.582524,123.757282 C593.459526,121.174744 590.378651,117.822027 588.339806,113.699029 C586.300961,109.576031 585.281553,105.249214 585.281553,100.718447 C585.281553,95.0096802 586.867298,90.0032578 590.038835,85.6990291 C593.210372,81.3948005 597.265347,78.0873902 602.203883,75.776699 C607.14242,73.4660079 612.194149,72.3106796 617.359223,72.3106796 C621.70876,72.3106796 625.627814,73.2168194 629.116505,75.0291262 C632.605195,76.841433 634.349515,79.3333175 634.349515,82.5048544 C634.349515,84.2265458 633.692563,85.699023 632.378641,86.9223301 C631.064718,88.1456372 629.229785,88.7572816 626.873786,88.7572816 C624.699018,88.7572816 622.977353,88.1909442 621.708738,87.0582524 C620.440123,85.9255607 619.398062,84.1812416 618.582524,81.8252427 C617.766986,79.2880132 616.974114,77.5436941 616.203883,76.592233 C615.433653,75.6407719 614.05179,75.1650485 612.058252,75.1650485 C608.161793,75.1650485 605.058264,77.0905956 602.747573,80.9417476 C600.436882,84.7928995 599.281553,89.8899359 599.281553,96.2330097 C599.281553,103.754083 600.957912,109.757259 604.31068,114.242718 C607.663447,118.728178 613.009672,120.970874 620.349515,120.970874 C622.796129,120.970874 624.902904,120.699032 626.669903,120.15534 C628.436902,119.611648 630.679598,118.705508 633.398058,117.436893 L633.533981,117.436893 C633.805827,117.436893 634.055015,117.572814 634.281553,117.84466 C634.508092,118.116506 634.530745,118.343041 634.349515,118.524272 C630.996747,121.605193 627.64403,123.893196 624.291262,125.38835 C620.938495,126.883503 617.0874,127.631068 612.737864,127.631068 Z M697.791262,73.5339806 C697.972493,73.5339806 698.063107,73.8058225 698.063107,74.3495146 C698.063107,74.8932066 697.972493,75.1650485 697.791262,75.1650485 C694.891571,75.1650485 692.377033,76.4109908 690.247573,78.9029126 C688.118112,81.3948345 686.192565,84.9967402 684.470874,89.7087379 L669.383495,129.805825 C664.580882,142.491973 659.982223,151.394796 655.587379,156.514563 C651.192535,161.63433 646.322033,164.194175 640.975728,164.194175 C638.257268,164.194175 636.173146,163.627837 634.723301,162.495146 C633.273456,161.362454 632.548544,159.708749 632.548544,157.533981 C632.548544,155.449828 633.182842,153.864083 634.451456,152.776699 C635.720071,151.689315 637.260509,151.145631 639.072816,151.145631 C640.069584,151.145631 640.907764,151.281552 641.587379,151.553398 C642.266994,151.825244 643.105173,152.278314 644.101942,152.912621 C645.823633,154.090621 647.454685,154.679612 648.995146,154.679612 C651.079298,154.679612 652.959539,153.886739 654.635922,152.300971 C656.312306,150.715202 658.056625,148.087397 659.868932,144.417476 C661.681239,140.747554 663.855974,135.514597 666.393204,128.718447 L644.645631,84.815534 C642.652094,80.9190744 641.089002,78.3365759 639.956311,77.0679612 C638.823619,75.7993464 637.441756,75.1650485 635.81068,75.1650485 C635.538834,75.1650485 635.402913,74.8932066 635.402913,74.3495146 C635.402913,73.8058225 635.538834,73.5339806 635.81068,73.5339806 C638.347909,73.5339806 640.29611,73.5792876 641.65534,73.6699029 L647.364078,73.8058252 L656.742718,73.6699029 C658.192564,73.5792876 660.140764,73.5339806 662.587379,73.5339806 C662.859225,73.5339806 662.995146,73.8058225 662.995146,74.3495146 C662.995146,74.8932066 662.859225,75.1650485 662.587379,75.1650485 C660.23138,75.1650485 658.509714,75.36893 657.42233,75.776699 C656.334946,76.1844681 655.791262,76.8414194 655.791262,77.7475728 C655.791262,78.4724955 656.063104,79.3786353 656.606796,80.4660194 L672.645631,113.223301 L680.800971,89.5728155 C681.616509,87.2168167 682.024272,85.0873882 682.024272,83.184466 C682.024272,80.6472365 681.29936,78.6763824 679.849515,77.2718447 C678.399669,75.8673069 676.315548,75.1650485 673.597087,75.1650485 C673.415857,75.1650485 673.325243,74.8932066 673.325243,74.3495146 C673.325243,73.8058225 673.415857,73.5339806 673.597087,73.5339806 C676.043702,73.5339806 677.901288,73.5792876 679.169903,73.6699029 L687.325243,73.8058252 L692.762136,73.6699029 C693.84952,73.5792876 695.525879,73.5339806 697.791262,73.5339806 Z"/>
    <path fill="#313131" d="M346.253521,139.589684 L349.909832,139.589684 L349.909832,149.117839 L348.305948,149.117839 L348.305948,141.030461 L346.253521,141.030461 L346.253521,139.589684 Z M355.819055,143.09648 C356.240414,143.082888 356.865657,143.082888 357.232647,143.082888 C359.393812,143.082888 360.78022,144.306189 360.78022,145.964441 C360.78022,147.908131 359.339444,149.172208 357.110317,149.172208 C355.941385,149.172208 354.56857,148.737257 353.589929,148.08483 L354.242356,146.779975 C355.044298,147.41881 356.036531,147.785801 356.933618,147.785801 C358.265657,147.785801 359.067599,147.133373 359.067599,146.073179 C359.067599,145.094538 358.265657,144.49648 356.960803,144.49648 C356.349152,144.49648 355.017113,144.550849 354.337502,144.632403 L354.337502,139.589684 L360.372453,139.589684 L360.372453,141.030461 L355.819055,141.030461 L355.819055,143.09648 Z" transform="rotate(29 353.517 144.38)"/>
    <path fill="#313131" d="M383.335922,151.066019 C384.056311,150.345631 384.545631,149.584466 384.545631,149.040777 C384.545631,148.266019 383.920388,147.817476 382.873786,147.817476 C382.017476,147.817476 381.01165,148.266019 380.196117,149 L379.543689,147.763107 C380.603883,146.920388 381.840777,146.403883 383.091262,146.403883 C384.953398,146.403883 386.217476,147.341748 386.217476,148.809709 C386.217476,149.761165 385.469903,150.834951 384.423301,151.92233 L381.813592,154.559223 L386.679612,154.559223 L386.679612,156 L379.706796,156 L379.706796,154.817476 L383.335922,151.066019 Z M391.501456,146.431068 C393.798544,146.431068 395.076214,148.143689 395.076214,151.229126 C395.076214,154.328155 393.798544,156.040777 391.501456,156.040777 C389.190777,156.040777 387.913107,154.328155 387.913107,151.229126 C387.913107,148.143689 389.190777,146.431068 391.501456,146.431068 Z M391.501456,147.681553 C390.169417,147.681553 389.503398,148.809709 389.503398,151.229126 C389.503398,153.648544 390.169417,154.790291 391.501456,154.790291 C392.819903,154.790291 393.485922,153.648544 393.485922,151.229126 C393.485922,148.809709 392.819903,147.681553 391.501456,147.681553 Z"/>
    <path stroke="#313131" stroke-linecap="round" stroke-width="3.398" d="M364.605921,128.015956 L360.394079,134.984044"/>
    <path stroke="#313131" stroke-linecap="round" stroke-width="3.398" d="M412.605921,128.015956 L408.394079,134.984044" transform="matrix(-1 0 0 1 821 0)"/>
    <path stroke="#313131" stroke-linecap="round" stroke-width="3.398" d="M387.5,132 L387.5,142" transform="matrix(-1 0 0 1 775 0)"/>
    <path fill="#313131" d="M414.148667,143.183859 C414.869055,142.46347 415.358376,141.702305 415.358376,141.158616 C415.358376,140.383859 414.733133,139.935315 413.686531,139.935315 C412.83022,139.935315 411.824395,140.383859 411.008861,141.117839 L410.356434,139.880946 C411.416628,139.038228 412.653521,138.521723 413.904007,138.521723 C415.766143,138.521723 417.03022,139.459587 417.03022,140.927548 C417.03022,141.879004 416.282647,142.952791 415.236045,144.04017 L412.626337,146.677063 L417.492356,146.677063 L417.492356,148.117839 L410.519541,148.117839 L410.519541,146.935315 L414.148667,143.183859 Z M420.819055,142.09648 C421.240414,142.082888 421.865657,142.082888 422.232647,142.082888 C424.393812,142.082888 425.78022,143.306189 425.78022,144.964441 C425.78022,146.908131 424.339444,148.172208 422.110317,148.172208 C420.941385,148.172208 419.56857,147.737257 418.589929,147.08483 L419.242356,145.779975 C420.044298,146.41881 421.036531,146.785801 421.933618,146.785801 C423.265657,146.785801 424.067599,146.133373 424.067599,145.073179 C424.067599,144.094538 423.265657,143.49648 421.960803,143.49648 C421.349152,143.49648 420.017113,143.550849 419.337502,143.632403 L419.337502,138.589684 L425.372453,138.589684 L425.372453,140.030461 L420.819055,140.030461 L420.819055,142.09648 Z" transform="rotate(-29 418.068 143.347)"/>
    <polygon fill="#313131" points="119 49.665 112.82 55 115.437 46.769 109 42.639 116.764 42.639 119 35 121.624 42.639 129 42.639 122.553 46.769 125.18 55"/>
    <polygon fill="#313131" points="165 49.665 158.82 55 161.437 46.769 155 42.639 162.764 42.639 165 35 167.624 42.639 175 42.639 168.553 46.769 171.18 55"/>
    <polygon fill="#313131" points="212 49.665 205.82 55 208.437 46.769 202 42.639 209.764 42.639 212 35 214.624 42.639 222 42.639 215.553 46.769 218.18 55"/>
    <polygon fill="#313131" points="258 49.665 251.82 55 254.437 46.769 248 42.639 255.764 42.639 258 35 260.624 42.639 268 42.639 261.553 46.769 264.18 55"/>
  </g>
</svg>
